<svg xmlns="http://www.w3.org/2000/svg" width="60" height="60" viewBox="0 0 60 60">
  <defs>
    <filter id="logo-a" width="124.1%" height="124.1%" x="-12.1%" y="-12.1%" filterUnits="objectBoundingBox">
      <feGaussianBlur in="SourceGraphic" stdDeviation="2"/>
    </filter>
  </defs>
  <g fill="none" transform="translate(5.143 5.143)">
    <path fill="#FF6D00" fill-opacity=".5" d="M24.8571429,0 C38.5853638,0 49.7142857,11.1289219 49.7142857,24.8571429 C49.7142857,38.5853638 38.5853638,49.7142857 24.8571429,49.7142857 C11.1289219,49.7142857 0,38.5853638 0,24.8571429 C0,11.1289219 11.1289219,0 24.8571429,0 Z M27.062212,8.01843318 C16.5446234,8.01843318 8.01843318,16.5446234 8.01843318,27.062212 C8.01843318,37.5798006 16.5446234,46.1059908 27.062212,46.1059908 C37.5798006,46.1059908 46.1059908,37.5798006 46.1059908,27.062212 C46.1059908,16.5446234 37.5798006,8.01843318 27.062212,8.01843318 Z" filter="url(#logo-a)" transform="rotate(180 24.857 24.857)"/>
    <path fill="#FF6D00" fill-opacity=".2" d="M24.8571429,0 C38.5853638,0 49.7142857,11.1289219 49.7142857,24.8571429 C49.7142857,38.5853638 38.5853638,49.7142857 24.8571429,49.7142857 C11.1289219,49.7142857 0,38.5853638 0,24.8571429 C0,11.1289219 11.1289219,0 24.8571429,0 Z M27.062212,8.01843318 C16.5446234,8.01843318 8.01843318,16.5446234 8.01843318,27.062212 C8.01843318,37.5798006 16.5446234,46.1059908 27.062212,46.1059908 C37.5798006,46.1059908 46.1059908,37.5798006 46.1059908,27.062212 C46.1059908,16.5446234 37.5798006,8.01843318 27.062212,8.01843318 Z" transform="rotate(180 24.857 24.857)"/>
    <path fill="#FF6D00" fill-opacity=".5" d="M24.8571429,0 C38.5853638,0 49.7142857,11.1289219 49.7142857,24.8571429 C49.7142857,38.5853638 38.5853638,49.7142857 24.8571429,49.7142857 C11.1289219,49.7142857 0,38.5853638 0,24.8571429 C0,11.1289219 11.1289219,0 24.8571429,0 Z M25.2580645,4.81105991 C13.9654957,4.81105991 4.81105991,13.9654957 4.81105991,25.2580645 C4.81105991,36.5506333 13.9654957,45.7050691 25.2580645,45.7050691 C36.5506333,45.7050691 45.7050691,36.5506333 45.7050691,25.2580645 C45.7050691,13.9654957 36.5506333,4.81105991 25.2580645,4.81105991 Z" transform="rotate(180 24.857 24.857)"/>
    <path fill="#FF7B18" fill-opacity=".8" d="M24.6428571,0.428571429 C38.0160379,0.428571429 48.8571429,11.2696764 48.8571429,24.6428571 C48.8571429,38.0160379 38.0160379,48.8571429 24.6428571,48.8571429 C11.2696764,48.8571429 0.428571429,38.0160379 0.428571429,24.6428571 C0.428571429,11.2696764 11.2696764,0.428571429 24.6428571,0.428571429 Z M25.45,2.85 C12.9683647,2.85 2.85,12.9683647 2.85,25.45 C2.85,37.9316353 12.9683647,48.05 25.45,48.05 C37.9316353,48.05 48.05,37.9316353 48.05,25.45 C48.05,12.9683647 37.9316353,2.85 25.45,2.85 Z" transform="rotate(180 24.643 24.643)"/>
    <path fill="#FF8C18" d="M23.7857143,0.428571429 C36.6855081,0.428571429 47.1428571,10.8859205 47.1428571,23.7857143 C47.1428571,36.6855081 36.6855081,47.1428571 23.7857143,47.1428571 C10.8859205,47.1428571 0.428571429,36.6855081 0.428571429,23.7857143 C0.428571429,10.8859205 10.8859205,0.428571429 23.7857143,0.428571429 Z M24.1849817,1.62637363 C11.7262065,1.62637363 1.62637363,11.7262065 1.62637363,24.1849817 C1.62637363,36.6437569 11.7262065,46.7435897 24.1849817,46.7435897 C36.6437569,46.7435897 46.7435897,36.6437569 46.7435897,24.1849817 C46.7435897,11.7262065 36.6437569,1.62637363 24.1849817,1.62637363 Z" transform="rotate(180 23.786 23.786)"/>
  </g>
</svg>
